<svg width="100%" height="100%"  xmlns="http://www.w3.org/2000/svg">
     <ellipse cx="600" cy="510" rx="70" ry="20" fill="#D9D9D9" />
    <circle cx="600" cy="400" r="100"  fill="yellow"/>
    <circle cx="565" cy="380" r="46"  fill="white"/>
    <circle cx="610" cy="380" r="46"  fill="white"/>
    <circle cx="540" cy="380" r="10"  fill="black"/>
    <circle cx="600" cy="380" r="10"  fill="black"/>
    <ellipse cx="580" cy="465" rx="10" ry="25" fill="#E2133D"/>
    <ellipse cx="300" cy="510" rx="70" ry="20" fill="#D9D9D9"/>
    <ellipse cx="280" cy="330" rx="70" ry="22" fill="#FFA700" style="transform: rotate(19deg);"/>
    <circle cx="300" cy="400" r="100"  fill="#FFA700"/>
    <circle cx="285" cy="380" r="46"  fill="white"/>
    <circle cx="340" cy="380" r="46"  fill="white"/>
    <circle cx="360" cy="380" r="10"  fill="black"/>
    <circle cx="300" cy="380" r="10"  fill="black"/>
    <circle cx="315" cy="425" r="12"  fill="black"/>
    <ellipse cx="295" cy="465" rx="25" ry="10" fill="#E2133D"/>
    <polygon points="92,380 116,373 106,400" fill="white" stroke="none"/>
    <polygon points="230,330 240,300 300,320" fill="orange" stroke="none"/>
    <polygon points="310,310 340,290 360,320" fill="orange" stroke="none"/>
    <polygon points="233,337 242,307 270,315" fill="black" stroke="none"/>
    <polygon points="320,310 340,295 350,315" fill="black" stroke="none"/>
</svg>